<svg xmlns="http://www.w3.org/2000/svg" height="1024" preserveAspectRatio="none" style="display: block;" version="1.1" viewBox="0 0 2048 2048" width="1024">
<path d="M 0 0 L 2048 0 L 2048 2048 L 0 2048 L 0 0 z" fill="rgb(255,255,255)" transform="translate(0,0)"></path>
<path d="M 865.382 527.405 C 886.358 526.318 911.735 527.151 931.269 527.017 C 988.109 527.454 1014.89 518.14 1010.64 588.535 C 1007.94 633.379 1020.99 654.457 958.836 654.134 L 907.463 653.884 C 897.75 653.867 882.579 653.378 873.54 655.162 C 867.496 656.344 861.769 658.783 856.728 662.321 C 842.251 672.413 837.283 688.02 837.171 704.971 C 836.975 734.653 837.149 764.348 837.14 794.029 C 837.135 810.197 836.406 824.664 846.463 838.632 C 852.268 846.693 860.611 852.572 870.155 855.328 C 879.3 858.021 891.43 857.407 901.146 857.366 L 951.324 857.116 C 969.207 857.029 993.137 854.077 1004.58 870.797 C 1006.84 874.1 1010.31 883.445 1010.25 887.243 C 1009.93 907.642 1013.76 942.552 1009.68 961.625 C 993.99 996.839 953.78 983.32 921.1 984.836 C 863.849 987.493 813.743 986.691 767.685 947.007 C 734.752 918.755 714.693 878.349 712.097 835.036 C 709.284 791.908 713.15 746.829 711.804 703.662 C 710.378 657.892 718.713 617.537 750.109 582.483 C 782.193 546.66 817.836 530.195 865.382 527.405 z" fill="rgb(116,106,153)" transform="translate(0,0)"></path>
<path d="M 1170.22 719.379 C 1184.34 718.466 1205.35 718.888 1219.74 718.887 C 1246.43 719.057 1273.13 718.961 1299.82 718.599 C 1315.27 718.495 1329.14 725.738 1331.7 742.338 C 1334.11 763.519 1333.38 786.743 1333.01 808.092 C 1332.51 850.776 1299.27 843.977 1268.62 844.037 C 1202.76 844.167 1174.53 834.418 1175.26 913.006 L 1175.64 947.958 C 1175.87 956.9 1175.56 964.451 1170.59 972.232 C 1166.44 978.639 1159.76 982.992 1152.22 984.217 C 1145.87 985.304 1136.89 985.094 1130.82 984.951 C 1081.12 983.214 1044.31 998.239 1048.9 930.266 C 1052.71 873.784 1036.66 814.403 1077.69 766.237 C 1102.51 737.101 1131.71 723.099 1170.22 719.379 z" fill="rgb(116,106,153)" transform="translate(0,0)"></path>
<path d="M 1094.65 526.367 L 1095.88 526.297 C 1110.51 525.543 1128.66 525.971 1143.5 525.95 L 1227.48 525.878 L 1277.42 525.899 C 1284.9 525.91 1299.04 525.584 1305.94 526.694 C 1312.12 527.686 1317.85 530.527 1322.38 534.844 C 1338.96 550.717 1331.35 593.679 1332.81 616.36 C 1335.6 659.833 1303.17 654.237 1272.36 654.155 L 1205.02 653.909 C 1178.8 653.911 1162.26 664.571 1160.87 692.612 C 1114.27 684.063 1076.7 699.247 1048.95 737.113 L 1048.81 627.044 C 1048.68 586.553 1039.24 532.162 1094.65 526.367 z" fill="rgb(116,106,153)" transform="translate(0,0)"></path>
<path d="M 741.66 1153.36 C 783.964 1146.77 826.374 1184.13 831.964 1224.79 C 833.216 1233.89 835.509 1248.36 822.333 1248.85 C 808.521 1249.36 794.369 1248.95 780.587 1248.92 C 749.807 1248.74 719.027 1248.77 688.248 1248.99 C 700.194 1300.27 749.646 1327.07 792.384 1290.52 C 798.029 1285.72 805.615 1274.09 813.702 1277.03 C 818.592 1278.81 821.348 1279.81 823.734 1284.54 C 824.427 1290.06 821.623 1293.56 818.006 1297.4 C 803.717 1312.58 783.979 1325.45 763.205 1328.67 C 740.529 1331.97 717.48 1325.97 699.294 1312.02 C 680.005 1297.04 667.504 1274.97 664.573 1250.72 C 661.546 1227.57 667.917 1204.17 682.263 1185.75 C 697.634 1165.98 717.236 1156.44 741.66 1153.36 z" fill="rgb(130,71,163)" transform="translate(0,0)"></path>
<path d="M 740.055 1176.21 C 777.231 1173.65 798.617 1192.08 808.39 1226.55 L 759.5 1226.36 L 689.215 1226.82 C 698.303 1199.81 710.771 1182.34 740.055 1176.21 z" fill="rgb(255,255,255)" transform="translate(0,0)"></path>
<path d="M 931.69 1153.31 C 948.454 1151.79 967.644 1153.26 982.448 1161.96 C 995.832 1169.77 1005.48 1182.68 1009.17 1197.73 C 1014.06 1217.12 1010.99 1248.24 1011.8 1269 C 1012.16 1278.36 1017.77 1345.62 992.926 1325.7 C 985.998 1320.14 986.573 1310.21 986.651 1301.95 C 967.039 1330.61 924.289 1336.15 894.528 1321.12 C 883.54 1315.56 877.476 1308.12 871.534 1297.65 C 851.576 1246.99 895.318 1222.35 938.625 1221.43 C 954.742 1221.09 970.847 1220.56 987.045 1220.44 C 987.215 1212.53 987.702 1206.09 984.542 1198.63 C 974.356 1175.59 944.765 1172.23 923.159 1178.4 C 911.569 1180.54 904.677 1187.88 895.93 1195.24 C 881.511 1207.38 870.538 1189.62 880.45 1178.76 C 892.725 1165.31 914.278 1155.81 931.69 1153.31 z" fill="rgb(130,71,163)" transform="translate(0,0)"></path>
<path d="M 961.658 1242.52 L 987.724 1242.12 C 987.763 1264.78 987.395 1281.27 966.984 1296.5 C 951.262 1308.23 937.092 1309.27 918.127 1306.55 C 897.626 1299.24 882.475 1284.84 894.267 1260.61 C 903.22 1242.22 942.728 1242.87 961.658 1242.52 z" fill="rgb(255,255,255)" transform="translate(0,0)"></path>
<path d="M 431.696 1085.42 C 449.861 1084.2 468.065 1087.13 484.936 1093.97 C 508.036 1103.41 532.903 1122.76 543.63 1146.16 C 544.888 1148.99 544.597 1152.67 543.091 1155.41 C 532.342 1174.91 515.133 1144.78 507.578 1137.81 C 501.522 1132.22 495 1125.51 488.477 1122 C 464.517 1109.13 436.661 1105.42 410.566 1113.44 C 386.103 1120.92 365.668 1137.91 353.85 1160.6 C 341.267 1184.77 339.576 1213.96 347.814 1239.73 C 365.366 1294.66 421.633 1316.71 474.291 1299.08 C 486.135 1294.17 493.507 1289.16 503.341 1280.55 C 508.975 1277.08 524.748 1251.82 530.264 1252.12 C 559.33 1253.68 537.452 1278.84 533.334 1284.29 C 493.871 1336.45 412.694 1344.46 363.2 1302.79 C 278.877 1231.78 318.595 1094.64 431.696 1085.42 z" fill="rgb(130,71,163)" transform="translate(0,0)"></path>
<path d="M 1306.78 1086.99 C 1355.03 1085.78 1404.75 1087.68 1453.11 1087.08 C 1466.38 1086.92 1469.87 1109.32 1455.4 1110.71 C 1440.65 1112.13 1424.6 1111.39 1409.67 1111.33 C 1381.07 1111.09 1352.48 1111.1 1323.89 1111.35 L 1323.45 1192.03 L 1401 1191.98 C 1414.72 1191.98 1430.07 1191.43 1443.61 1193.01 C 1446.73 1193.37 1448.2 1194.81 1450.38 1196.91 C 1455.07 1207.4 1450.5 1214.74 1439.34 1215.43 C 1425.73 1216.28 1411.64 1215.92 1398 1215.91 L 1323.6 1216.01 C 1323.07 1249.79 1324.51 1283.79 1323.42 1317.55 C 1323.36 1319.38 1321.27 1322.72 1319.94 1324.08 C 1317.31 1326.79 1313.64 1328.25 1309.87 1328.09 C 1303.39 1327.8 1299.14 1322.45 1298.86 1316.24 C 1298.18 1301.3 1298.38 1286.34 1298.37 1271.39 L 1298.29 1188.29 L 1298.13 1127.21 C 1298.11 1117.55 1297.77 1106.24 1298.62 1096.67 C 1299.02 1092.13 1303.26 1089.24 1306.78 1086.99 z" fill="rgb(130,71,163)" transform="translate(0,0)"></path>
<path d="M 1588.11 1153.87 C 1591.83 1153.44 1594.67 1153.46 1597.63 1156.1 C 1605.89 1163.49 1613.11 1172.77 1620.25 1181.25 L 1655.49 1223.1 C 1663.75 1211.73 1705.57 1157.32 1715.37 1154.42 C 1718.63 1153.45 1722.22 1153.8 1725 1155.88 C 1727.65 1157.87 1728.82 1161.03 1728.98 1164.24 C 1729.12 1167.21 1728.57 1170.01 1727.14 1172.62 C 1720.98 1183.93 1680.47 1229.74 1670.4 1240.32 C 1690.16 1262.9 1710.14 1287.01 1728.18 1310.92 C 1733.02 1317.33 1726.18 1325.17 1720.11 1327.98 C 1719.26 1327.96 1718.42 1327.92 1717.57 1327.86 C 1709.28 1327.27 1699.44 1313.01 1693.92 1306.56 L 1655.29 1260.84 C 1646.49 1270.32 1602.36 1326.62 1594.98 1328.29 C 1591.54 1329.06 1588.48 1328.56 1585.62 1326.45 C 1582.72 1324.31 1581.12 1320.12 1580.88 1316.63 C 1580.68 1313.84 1581.06 1311.43 1582.54 1309.03 C 1587.46 1301.08 1595.2 1293.75 1601.21 1286.56 C 1613.85 1271.46 1626.07 1256 1639.03 1241.16 C 1619.48 1220.08 1599.5 1194.33 1580.93 1171.95 C 1575.12 1164.94 1581.64 1157.84 1588.11 1153.87 z" fill="rgb(130,71,163)" transform="translate(0,0)"></path>
<path d="M 1093.01 1181.27 C 1105.35 1165.83 1115.52 1157.2 1135.91 1153.63 C 1142.84 1152.91 1151.9 1150.78 1157.79 1155.47 C 1166.07 1159.49 1160.45 1175.28 1153.8 1175.56 C 1136.55 1176.3 1124.95 1177.95 1111.05 1190.36 C 1096.02 1203.79 1093.77 1220.66 1093.11 1240.21 C 1092.93 1265.52 1093.58 1291.13 1092.91 1316.44 C 1092.82 1319.93 1091.43 1322.8 1088.73 1325.05 C 1085.79 1327.5 1081.92 1328.55 1078.14 1327.91 C 1075.08 1327.42 1072.38 1325.63 1070.72 1323.01 C 1065.35 1314.49 1069.57 1181.61 1069.43 1161.46 C 1069.41 1158.09 1076.21 1154.33 1078.96 1152.95 C 1095.88 1154.69 1093.28 1167.76 1093.01 1181.27 z" fill="rgb(130,71,163)" transform="translate(0,0)"></path>
<path d="M 602.185 1082.93 C 605.825 1083.18 614.507 1084.97 614.651 1089.34 C 617.124 1164.34 615.607 1239.92 615.78 1315.05 C 615.8 1323.75 611.41 1326 604.353 1328.47 C 603.247 1328.36 602.598 1328.33 601.457 1328.06 C 597.983 1327.26 595.035 1325.52 593.391 1322.26 C 592.183 1319.86 591.939 1317.3 591.793 1314.66 C 590.543 1291.95 590.43 1094.93 592.464 1090.27 C 594.086 1086.55 598.785 1084.52 602.185 1082.93 z" fill="rgb(130,71,163)" transform="translate(0,0)"></path>
<path d="M 1519.22 1153.92 C 1520.69 1153.93 1522.56 1153.96 1524 1154.19 C 1527.29 1154.69 1530.23 1156.5 1532.15 1159.21 C 1533.61 1161.28 1534.27 1163.45 1534.28 1165.99 C 1534.45 1211.34 1534.02 1256.7 1534.35 1302.05 C 1534.39 1307.72 1534.46 1313.72 1533.77 1319.22 C 1533.24 1323.45 1528.5 1326.68 1525.5 1328.8 C 1514.8 1328.8 1510.47 1325 1510.43 1313.77 C 1510.25 1263.42 1509.05 1212.6 1510.56 1162.32 C 1510.66 1158.96 1516.62 1155.5 1519.22 1153.92 z" fill="rgb(130,71,163)" transform="translate(0,0)"></path>
<path d="M 1099.48 1439.19 C 1118.49 1438.22 1116.87 1445.09 1122.96 1446.01 C 1125.21 1444.5 1120.78 1437.84 1128.55 1439.02 C 1131.67 1439.5 1131 1454.52 1130.93 1456.94 C 1130.2 1480.15 1137.72 1510.74 1102.99 1508.06 C 1096.19 1507.54 1092.8 1506.01 1086.93 1502.88 C 1083.07 1500.82 1086.82 1498.07 1088.76 1495.38 C 1098.13 1502.76 1115.19 1505.48 1121.77 1492.41 C 1122.43 1491.11 1124.3 1480.75 1122.42 1480.44 C 1113.11 1488.16 1105.87 1489.55 1093.86 1485.34 C 1080.55 1480.69 1077.42 1461.9 1083.22 1450.58 C 1086.61 1443.98 1092.68 1441.33 1099.48 1439.19 z" fill="rgb(242,107,113)" transform="translate(0,0)"></path>
<path d="M 1102.17 1446.24 C 1117.44 1447.2 1126.38 1452.77 1121.53 1471.32 C 1120.23 1476.31 1114.85 1478.62 1110.34 1480.39 C 1094.29 1480.06 1083.19 1473.11 1090.38 1453.62 C 1091.91 1449.47 1097.94 1447.25 1102.17 1446.24 z" fill="rgb(255,255,255)" transform="translate(0,0)"></path>
<path d="M 1338.59 1439.14 C 1345.36 1438.88 1350.23 1438.69 1355.99 1442.87 C 1357.44 1443.92 1359.92 1447.22 1361.49 1446.58 C 1362.77 1444.89 1360.34 1440.94 1362.09 1439.41 C 1363.05 1438.57 1368.24 1438.76 1368.61 1439.66 C 1369.45 1442.75 1369.22 1447.58 1369.13 1450.8 C 1368.77 1463.54 1370.12 1476.86 1368.9 1489.49 C 1368.39 1494.81 1363.89 1501.64 1359.23 1504.31 C 1351.37 1508.79 1341.42 1507.98 1332.83 1506.41 C 1329.76 1505.4 1324.87 1503.77 1323.02 1500.99 C 1322.58 1500.33 1323.99 1494.54 1324.97 1494.37 C 1325.2 1494.33 1325.43 1494.29 1325.66 1494.25 L 1327.01 1495.13 C 1352.71 1511.95 1368.38 1488.37 1362.1 1480.79 C 1360.09 1480.04 1354.7 1485.82 1350.98 1486.7 C 1338.17 1490.06 1322.85 1485.48 1319.64 1471.05 C 1315.86 1454.02 1322.36 1443.49 1338.59 1439.14 z" fill="rgb(242,107,113)" transform="translate(0,0)"></path>
<path d="M 1339.95 1446.26 C 1349.18 1444.16 1358.4 1449.8 1360.73 1458.98 C 1363.07 1468.16 1357.65 1477.52 1348.54 1480.09 C 1342.43 1481.8 1335.88 1480.07 1331.41 1475.57 C 1326.95 1471.06 1325.28 1464.49 1327.05 1458.4 C 1328.83 1452.31 1333.76 1447.66 1339.95 1446.26 z" fill="rgb(255,255,255)" transform="translate(0,0)"></path>
<path d="M 969.608 1439.6 C 978.821 1437.56 988.417 1440.66 994.689 1447.71 C 1000.96 1454.76 1002.93 1464.65 999.829 1473.56 C 996.729 1482.48 989.049 1489.01 979.756 1490.65 C 965.815 1493.11 952.468 1483.97 949.708 1470.09 C 946.948 1456.21 955.788 1442.66 969.608 1439.6 z" fill="rgb(242,107,113)" transform="translate(0,0)"></path>
<path d="M 967.933 1447.15 C 983.049 1445.85 994.99 1449.5 992.843 1468.99 C 992.208 1474.76 986.825 1479.09 982.087 1482.03 C 957.87 1489 948.619 1460.19 967.933 1447.15 z" fill="rgb(255,255,255)" transform="translate(0,0)"></path>
<path d="M 675.154 1425.23 C 680.196 1425.19 711.608 1423.97 718.727 1426 C 719.051 1426.1 719.095 1431.64 718.524 1431.71 C 707.807 1433.02 693.903 1432.44 682.996 1432.37 C 682.942 1439.6 682.987 1446.84 683.132 1454.07 C 693.49 1453.79 705.286 1453.05 715.457 1453.87 C 716.342 1453.95 716.207 1460.42 715.342 1460.51 C 705.621 1461.49 694.948 1460.9 685.021 1460.98 C 681.861 1462.73 683.477 1478.58 683.551 1482.88 C 693.516 1482.97 703.142 1482.96 713.483 1482.89 C 718.293 1479.63 722.924 1487.69 719.491 1489.36 C 717.198 1490.48 679.09 1490.07 675.201 1490.13 C 674.787 1469.77 674.636 1445.37 675.154 1425.23 z" fill="rgb(242,107,113)" transform="translate(0,0)"></path>
<path d="M 1244.98 1438.64 C 1245.75 1438.71 1246.52 1438.77 1247.29 1438.82 C 1253.6 1439.18 1252.57 1439.36 1252.68 1444.4 C 1253.82 1446.34 1258.14 1441.86 1260 1441.24 C 1296.01 1429.19 1291.59 1466.63 1290.52 1489.3 C 1290.51 1489.7 1282.82 1495.21 1283.03 1486.01 C 1283.16 1476.92 1283.15 1467.84 1283.01 1458.75 C 1281.7 1451.06 1276.79 1445.37 1268.49 1446.05 C 1263.28 1446.46 1258.47 1449.04 1255.25 1453.16 C 1254.49 1454.15 1253.73 1455.13 1252.96 1456.11 C 1252.44 1467.04 1253.4 1479.04 1251.84 1489.63 C 1251.15 1490.36 1245.77 1490.1 1245.71 1489.5 C 1244.28 1474.85 1244.72 1453.24 1244.98 1438.64 z" fill="rgb(242,107,113)" transform="translate(0,0)"></path>
<path d="M 775.727 1439.11 C 783.022 1438.88 789.475 1437.98 795.403 1443.23 C 802.681 1449.67 801.629 1458.65 801.823 1467.5 C 801.86 1471.68 801.902 1478.05 801.903 1482.01 C 801.903 1484.09 802.428 1488.77 801.279 1489.31 C 784.381 1497.27 804.638 1449.39 785.489 1447.16 C 773.251 1445.73 769.936 1449.55 764.734 1455.44 C 762.193 1463.95 764.68 1478.89 763.777 1488.02 C 763.47 1491.11 756.458 1490.51 756.403 1488.44 C 755.976 1472.51 755.802 1456.01 756.321 1440.15 C 756.325 1440.02 764.493 1434.84 763.936 1444.66 L 763.748 1447.61 C 765.086 1447.05 772.391 1441.03 775.727 1439.11 z" fill="rgb(242,107,113)" transform="translate(0,0)"></path>
<path d="M 1516.1 1084.64 C 1525.08 1081.14 1535.19 1085.61 1538.63 1094.62 C 1542.08 1103.62 1537.53 1113.7 1528.5 1117.08 C 1519.56 1120.42 1509.6 1115.93 1506.2 1107.02 C 1502.79 1098.11 1507.21 1088.11 1516.1 1084.64 z" fill="rgb(130,71,163)" transform="translate(0,0)"></path>
<path d="M 1165.54 1439.46 C 1166.01 1439.49 1172.22 1439.62 1172.37 1440.17 C 1175.99 1453.04 1164.48 1486.8 1189.49 1482.85 C 1209.48 1479.69 1200.78 1453.18 1203.41 1440.37 C 1203.55 1439.72 1210.68 1438.38 1210.09 1441.96 C 1210.09 1446.21 1210.09 1450.98 1210.06 1455.25 C 1210.04 1463.6 1210.6 1480.58 1209.4 1489.3 C 1209.19 1490.87 1201.92 1490.69 1202.91 1487.03 C 1203.4 1485.22 1202.64 1483.54 1200.56 1484.92 C 1192.35 1491.79 1175.22 1492.4 1169.13 1482.41 C 1162.97 1472.3 1165.19 1451.13 1165.54 1439.46 z" fill="rgb(242,107,113)" transform="translate(0,0)"></path>
<path d="M 900.062 1439.2 C 906.265 1438.89 911.67 1438.55 917.474 1441.07 C 918.443 1441.49 922.433 1443.22 922.633 1444.57 C 922.712 1445.1 922.479 1445.58 922.212 1446.02 C 921.894 1446.55 921.485 1447.02 921.236 1447.58 C 920.884 1448.38 920.473 1450.16 919.638 1450.61 C 919.478 1450.7 912.042 1446.71 910.925 1446.37 C 906.972 1445.18 901.3 1445.17 897.619 1447.32 C 896.083 1448.21 894.877 1449.55 894.53 1451.34 C 894.199 1453.04 894.415 1454.89 895.416 1456.35 C 897.926 1459.99 902.959 1461.05 907.013 1461.84 L 911.517 1462.76 C 928.978 1466.45 928.71 1486.04 908.409 1490.86 C 902.377 1490.99 897.469 1490.75 892.009 1487.91 C 891.102 1486.93 885.563 1486.25 886.141 1484.04 C 886.48 1482.75 886.72 1478.8 887.628 1478 C 894.308 1480.23 907.685 1490.69 915.959 1478.47 C 918.426 1473.03 908.878 1469.05 906.067 1468.64 C 885.881 1465.65 877.091 1449.33 900.062 1439.2 z" fill="rgb(242,107,113)" transform="translate(0,0)"></path>
<path d="M 839.13 1426.43 C 847.712 1427.79 844.884 1429.35 845.524 1439.01 C 848.874 1439.06 853.535 1438.8 856.482 1439.35 C 858.709 1439.77 858.636 1444.46 857.396 1445.35 C 855.916 1446.42 846.889 1446 845.277 1446.03 C 845.184 1454.92 840.818 1488.63 855.386 1483.6 C 860.377 1481.87 859.154 1483.04 862.6 1487.82 C 844.807 1494.38 836.381 1487.96 837.818 1469.92 C 838.366 1463.04 837.749 1453.8 837.493 1446.92 C 837.419 1444.93 829.622 1446.5 829.324 1444.04 C 829.163 1438.18 831.884 1438.94 835.615 1438.94 C 838.859 1438.95 835.288 1430.55 838.384 1427.28 L 839.13 1426.43 z" fill="rgb(242,107,113)" transform="translate(0,0)"></path>
<path d="M 1031.44 1438.8 C 1033.12 1438.92 1037.65 1438.76 1039.06 1439.87 C 1040.57 1441.06 1038.63 1444.02 1039.88 1445.14 C 1042.94 1445.65 1057.21 1432.61 1056.98 1442.49 C 1056.81 1449.67 1049.28 1443.78 1043.56 1451.19 C 1039.04 1457.05 1039.18 1457.3 1039.07 1464.75 C 1039.04 1472.84 1039.54 1482.15 1038.63 1489.92 C 1038.46 1491.4 1032.68 1491.48 1032.54 1490.36 C 1030.89 1477.47 1031.15 1450.75 1031.44 1438.8 z" fill="rgb(242,107,113)" transform="translate(0,0)"></path>
<metadata><recraft-signature>{"signed_by": "recraft", "signature_b64": "Aifv6fTasxUEoUrOi3I/W2gN13F44jg5SLOvPN7KX3eEtdxKZTHJdjBEwnyfNIbAIDCz9MqCJ80dNPyXQ6rcCQ==", "signing_algo": "Ed25519", "generation_timestamp": 1784373002, "identifier": "9bac75a1-46a8-4f07-b06c-bd800897363e"}</recraft-signature></metadata></svg>